<?xml version="1.0" encoding="UTF-8"?>
<svg width="50px" height="14px" viewBox="0 0 50 14" version="1.1" xmlns="http://www.w3.org/2000/svg" xmlns:xlink="http://www.w3.org/1999/xlink">
    <title>A3621A13-C98C-463D-89F0-0F4B370A15A1@1x</title>
    <g id="Final---Revamp-Bureaus---Mobile-&amp;-Desktop--Copy-3" stroke="none" stroke-width="1" fill="none" fill-rule="evenodd">
        <g id="Desktop" transform="translate(-1102.000000, -827.000000)" fill="#00A2D1" fill-rule="nonzero">
            <g id="Group-12-Copy-2" transform="translate(1065.000000, 808.000000)">
                <g id="logos" transform="translate(37.000000, 0.000000)">
                    <g id="Group" transform="translate(0.000000, 19.000000)">
                        <path d="M7.03685409,0 C9.74465574,0 12.55111,1.48772768 13.2824291,4.58184784 L11.0693999,4.58184784 C10.3767734,2.87949047 8.83606377,2.09478038 7.01750775,2.07534273 C4.19115831,2.07534273 2.31154469,4.11140238 2.31154469,7.03017593 C2.31154469,9.75076702 4.19115831,11.9231621 7.01750775,11.9231621 C8.91537005,11.9231621 10.5154908,11.0037477 11.1278505,9.18231776 L13.362147,9.18231776 C12.6700694,12.53171 9.82396202,14 7.01750775,14 C3.26184792,14 0,11.4351819 0,7.03017593 C0,2.60382927 3.26184792,0 7.03685409,0" id="Path"></path>
                        <polygon id="Path" points="20.5930134 12.0232048 20.5930134 13.862985 13.9130375 13.862985 13.9130375 12.0232048 16.1071321 12.0232048 16.1071321 1.97829042 14.0904476 1.97829042 14.0904476 0.155365257 20.4156033 0.155365257 20.4156033 1.97829042 18.3994676 1.97829042 18.3994676 12.0232048"></polygon>
                        <path d="M30.4154661,6.65746243 C31.8595812,7.14707367 32.6492138,8.28274884 32.6492138,9.82919725 C32.6492138,12.2776613 30.94948,13.8631209 28.2610247,13.8631209 L22.0743119,13.8631209 L22.0743119,0.156860461 L27.6877693,0.156860461 C30.1979913,0.156860461 32.0350704,1.42968659 32.0350704,4.01462193 C32.0350704,5.16919104 31.5029774,6.12843217 30.4154661,6.65746243 M24.3676079,2.13365568 L24.3676079,5.91312284 L27.5298428,5.91312284 C28.8544497,5.91312284 29.7630416,5.40420987 29.7838973,4.07198338 C29.7838973,2.7211348 28.873796,2.13365568 27.5298428,2.13365568 L24.3676079,2.13365568 Z M24.3676079,7.77206882 L24.3676079,11.8652569 L28.1242282,11.8652569 C29.4078099,11.8652569 30.3159902,11.1418502 30.3763618,9.82919725 C30.3763618,9.1441221 30.139129,8.59511049 29.6649378,8.20527011 C29.1299635,7.8128471 28.4997667,7.77206882 27.865591,7.77206882 L24.3676079,7.77206882 Z" id="Shape"></path>
                        <polygon id="Path" points="40.2557559 12.0232048 40.2557559 13.862985 33.57578 13.862985 33.57578 12.0232048 35.769463 12.0232048 35.769463 1.97829042 33.7540133 1.97829042 33.7540133 0.155365257 40.078483 0.155365257 40.078483 1.97829042 38.0622101 1.97829042 38.0622101 12.0232048"></polygon>
                        <polygon id="Path" points="44.05052 11.8064002 50 11.8064002 50 13.862985 41.7381521 13.862985 41.7381521 0.155365257 44.05052 0.155365257"></polygon>
                    </g>
                </g>
            </g>
        </g>
    </g>
</svg>