<svg height="179" viewBox="0 0 384 179" width="384" xmlns="http://www.w3.org/2000/svg" xmlns:xlink="http://www.w3.org/1999/xlink"><defs><rect id="a" height="155" rx="10" width="360"/><filter id="b" height="123.2%" width="110%" x="-5%" y="-11.6%"><feMorphology in="SourceAlpha" operator="dilate" radius="1" result="shadowSpreadOuter1"/><feOffset dx="0" dy="0" in="shadowSpreadOuter1" result="shadowOffsetOuter1"/><feGaussianBlur in="shadowOffsetOuter1" result="shadowBlurOuter1" stdDeviation="5"/><feColorMatrix in="shadowBlurOuter1" type="matrix" values="0 0 0 0 0.781143707   0 0 0 0 0.781143707   0 0 0 0 0.781143707  0 0 0 0.5 0"/></filter><linearGradient id="c" x1="-6.540928%" x2="94.786352%" y1="-11.099918%" y2="100%"><stop offset="0" stop-color="#29c3cf"/><stop offset="1" stop-color="#16f5e7"/></linearGradient></defs><g fill="none" fill-rule="evenodd"><g transform="translate(12 12)"><use fill="#000" filter="url(#b)" xlink:href="#a"/><use fill="#fff" fill-rule="evenodd" xlink:href="#a"/></g><g transform="translate(53 67)"><path d="m74.4770397 31.8230816c.6953958 0 1.2771124.2457833 1.7451672.7373572.4680549.4915739.7020788 1.0603865.7020788 1.7064551 0 .7022484-.2340239 1.2780834-.7020788 1.7275224-.4680548.449439-1.0497714.6741551-1.7451672.6741551h-13.4397937c-.6953958 0-1.2771124-.2457832-1.7451672-.7373571-.4680549-.4915739-.7020788-1.1025209-.7020788-1.8328592v-24.35385306c0-.73033834.2340239-1.3412853.7020788-1.83285918.4680548-.49157389 1.0497714-.73735715 1.7451672-.73735715h13.4397937c.6953958 0 1.2771124.2317385 1.7451672.69522245.4680549.46348395.7020788 1.06038615.7020788 1.79072449 0 .70224845-.2273375 1.27106105-.6820194 1.70645515-.4546818.435394-1.0430848.6530877-1.7652266.6530877h-10.8721913v7.162898h9.0668459c.6953958 0 1.2771124.2317385 1.7451672.6952224.4680549.463484.7020788 1.0603862.7020788 1.7907245 0 .7022484-.2273375 1.2710611-.6820194 1.7064551-.4546818.435394-1.0430848.6530878-1.7652266.6530878h-9.0668459v7.7949183zm23.5852493-18.271653c.6868977 0 1.2549008.240098 1.7040262.7203011.4491258.4802032.6736848 1.1016333.6736848 1.8643089v17.9227877c0 .7344283-.224559 1.3487967-.6736848 1.8431235-.4491254.4943268-1.0171285.7414865-1.7040262.7414865s-1.2482961-.240098-1.684212-.7203012c-.4359158-.4802031-.6670799-1.0875098-.693499-1.8219382-.6604786.8191701-1.5521113 1.518279-2.6749249 2.0973475s-2.3050525.8685985-3.5467523.8685985c-1.8229208 0-3.4740925-.5013811-4.9535646-1.5041583-1.479472-1.0027773-2.6485015-2.3939332-3.5071237-4.1735097-.8586221-1.7795765-1.2879268-3.7992242-1.2879268-6.0590039 0-2.2597796.4227-4.2864891 1.2681126-6.0801891.8454125-1.7937001 2.0012327-3.1919178 3.4674952-4.194695 1.4662624-1.0027772 3.0844107-1.5041583 4.8544933-1.5041583 1.2681189 0 2.4569625.2471597 3.5665665.7414865s2.0474695 1.1228185 2.8136247 1.8854942v-.0423707c0-.7344284.2245593-1.3487967.6736848-1.8431235.4491254-.4943268 1.0171285-.7414865 1.7040262-.7414865zm-7.805585 18.7328571c1.7094674 0 3.1033199-.6781595 4.1815993-2.0344989s1.617411-3.062446 1.617411-5.118371-.5391316-3.7691701-1.617411-5.1397868-2.4721319-2.0559147-4.1815993-2.0559147c-1.6831678 0-3.0638707.685298-4.1421501 2.0559147s-1.617411 3.0838618-1.617411 5.1397868.5325568 3.7620316 1.5976865 5.118371c1.0651296 1.3563394 2.4524073 2.0344989 4.1618746 2.0344989zm26.557844-18.7328571c.77659 0 1.43021.2362152 1.96088.7086527.53067.4724374.796001 1.0282379.796001 1.667418 0 .8615037-.207088 1.5076217-.621269 1.9383736-.414182.4307518-.906015.6461245-1.475514.6461245-.388295 0-.828356-.0972651-1.320197-.2917982-.077659-.0277904-.252389-.0833705-.524195-.1667418-.271807-.0833713-.563024-.1250564-.87366-.1250564-.673044 0-1.320193.2223202-1.941465.6669673-.621272.444647-1.13252 1.1185551-1.533758 2.0217444s-.601854 1.9800527-.601854 3.2306226v9.8794521c0 .7225515-.220031 1.3269845-.660098 1.8133172-.440068.4863327-.996616.7294954-1.669661.7294954-.673044 0-1.229592-.2431627-1.66966-.7294954-.440067-.4863327-.660098-1.0907657-.660098-1.8133172v-17.2160917c0-.7225515.220031-1.3269845.660098-1.8133172.440068-.4863327.996616-.7294954 1.66966-.7294954.673045 0 1.229593.2431627 1.669661.7294954.440067.4863327.660098 1.0907657.660098 1.8133172v.5419109c.595386-1.1394081 1.449622-2.0078463 2.562734-2.6053408 1.113113-.5974945 2.303866-.8962372 3.572297-.8962372zm11.924023 20.18872c0 .7188685-.232497 1.3202206-.6975 1.8040744-.465002.4838537-1.042925.725777-1.733785.725777-.664289 0-1.222284-.2419233-1.674-.725777-.451717-.4838538-.677572-1.0852059-.677572-1.8040744v-25.63029725c0-.71886846.232498-1.32022055.6975-1.80407432.465003-.48385377 1.042925-.72577703 1.733786-.72577703.664289 0 1.222283.24192326 1.674.72577703s.677571 1.08520586.677571 1.80407432zm22.304302-19.3915772c.695396 0 1.270426.243569 1.725108.7307143.454681.4871453.682019 1.0925882.682019 1.816347v17.7459183c0 3.6187936-.936096 6.2562979-2.808315 7.9125919-1.87222 1.656294-4.372932 2.4844285-7.502213 2.4844285-.909364 0-1.838773-.0765502-2.788256-.229653s-1.718418-.3549171-2.30683-.605449c-1.310554-.5845744-1.965821-1.3918316-1.965821-2.4217959 0-.1948581.040119-.4175498.120357-.6680817.160475-.6124112.434618-1.0786718.822435-1.3987959.387817-.320124.80906-.4801837 1.263741-.4801837.26746 0 .521543.0417547.762257.1252654.187222.0835106.514856.2226929.982911.417551s.962848.3549177 1.484395.4801836c.521547.125266 1.063145.187898 1.624811.187898 1.898965 0 3.296422-.424506 4.192413-1.2735306.895991-.8490247 1.343979-2.3034795 1.343979-4.3634082v-.417551c-1.390791 1.8093968-3.557184 2.7140816-6.499243 2.7140816-1.390792 0-2.621089-.3409965-3.690929-1.023-1.069839-.6820034-1.898953-1.6284429-2.487364-2.8393469-.588412-1.210904-.882614-2.5957677-.882614-4.1546327v-12.1924897c0-.7237588.227338-1.3292017.68202-1.816347s1.029712-.7307143 1.725108-.7307143c.695395 0 1.270425.243569 1.725107.7307143s.68202 1.0925882.68202 1.816347v10.6893061c0 1.753723.367752 3.0133227 1.103266 3.7788367.735515.765514 1.812025 1.1482653 3.229563 1.1482653 1.390791 0 2.467301-.4245059 3.229562-1.2735306.762261-.8490246 1.143386-2.0668696 1.143386-3.6535714v-10.6893061c0-.7237588.227337-1.3292017.682019-1.816347s1.029712-.7307143 1.725108-.7307143zm16.815831 22.7185715c-1.924254 0-3.634676-.2524261-5.131318-.7572858-1.496642-.5048596-2.899723-1.3603035-4.209284-2.5663571-.721596-.6731462-1.082388-1.4164007-1.082388-2.2297857 0-.6450985.227166-1.2130571.681503-1.7038929.454338-.4908358 1.002208-.73625 1.643626-.73625.507789 0 .96212.1682841 1.363006.5048572 1.06903.925576 2.111319 1.5987122 3.126897 2.0194285 1.015579.4207164 2.218219.6310715 3.607958.6310715 1.496642 0 2.78614-.3505918 3.868533-1.0517857 1.082393-.701194 1.623581-1.5706615 1.623581-2.6084286 0-1.2621492-.534507-2.2508179-1.603537-2.9660357-1.06903-.7152179-2.766089-1.2551292-5.09123-1.61975-5.852939-.8975283-8.779364-3.7583569-8.779364-8.5825715 0-1.7670088.440968-3.3026006 1.322918-4.6068214.88195-1.30422079 2.08459-2.29990131 3.607958-2.98707141 1.523368-.68717011 3.220427-1.03075 5.091229-1.03075 1.683723 0 3.267199.26644971 4.750479.79935714 1.483279.53290743 2.719326 1.23409089 3.708179 2.10357143.775046.64509844 1.162564 1.38835294 1.162564 2.22978574 0 .6450984-.227166 1.213057-.681503 1.7038928-.454338.4908358-.988845.73625-1.603537.73625-.400886 0-.761679-.126213-1.082388-.3786428-.694869-.589003-1.663663-1.1289142-2.90641-1.61975-1.242748-.4908358-2.358531-.73625-3.347384-.73625-1.683722 0-2.986582.3295562-3.908621.9886785-.922038.6591224-1.38305 1.521578-1.38305 2.5873929 0 1.2060536.474375 2.1175922 1.423139 2.7346429s2.438702 1.1219028 4.469859 1.5145714c2.298414.4207164 4.135782.9606276 5.512158 1.61975 1.376376.6591223 2.411983 1.5566372 3.106853 2.6925714.694869 1.1359343 1.042299 2.6434787 1.042299 4.5226786 0 1.7670088-.474375 3.3166243-1.423139 4.6488928-.948764 1.3322686-2.211537 2.3559965-3.788356 3.0712143-1.576819.7152179-3.273879 1.0728215-5.09123 1.0728215zm32.237871-23.5157143c.686897 0 1.2549.240098 1.704026.7203011.449125.4802032.673685 1.1016333.673685 1.8643089v17.9227877c0 .7344283-.22456 1.3487967-.673685 1.8431235-.449126.4943268-1.017129.7414865-1.704026.7414865-.686898 0-1.248296-.240098-1.684212-.7203012-.435916-.4802031-.66708-1.0875098-.693499-1.8219382-.660479.8191701-1.552112 1.518279-2.674925 2.0973475-1.122814.5790685-2.305053.8685985-3.546752.8685985-1.822921 0-3.474093-.5013811-4.953565-1.5041583-1.479472-1.0027773-2.648502-2.3939332-3.507124-4.1735097s-1.287927-3.7992242-1.287927-6.0590039c0-2.2597796.4227-4.2864891 1.268113-6.0801891.845413-1.7937001 2.001233-3.1919178 3.467495-4.194695 1.466263-1.0027772 3.084411-1.5041583 4.854493-1.5041583 1.268119 0 2.456963.2471597 3.566567.7414865s2.04747 1.1228185 2.813625 1.8854942v-.0423707c0-.7344284.224559-1.3487967.673684-1.8431235.449126-.4943268 1.017129-.7414865 1.704027-.7414865zm-8.602728 18.7328571c1.709467 0 3.10332-.6781595 4.181599-2.0344989 1.07828-1.3563394 1.617411-3.062446 1.617411-5.118371s-.539131-3.7691701-1.617411-5.1397868c-1.078279-1.3706167-2.472132-2.0559147-4.181599-2.0559147-1.683168 0-3.063871.685298-4.14215 2.0559147-1.07828 1.3706167-1.617411 3.0838618-1.617411 5.1397868s.532557 3.7620316 1.597686 5.118371c1.06513 1.3563394 2.452408 2.0344989 4.161875 2.0344989zm21.343296 1.4558629c0 .7188685-.232498 1.3202206-.6975 1.8040744-.465002.4838537-1.042925.725777-1.733786.725777-.664289 0-1.222283-.2419233-1.674-.725777-.451716-.4838538-.677571-1.0852059-.677571-1.8040744v-25.63029725c0-.71886846.232497-1.32022055.6975-1.80407432.465002-.48385377 1.042925-.72577703 1.733785-.72577703.664289 0 1.222284.24192326 1.674.72577703.451717.48385377.677572 1.08520586.677572 1.80407432zm22.732289-20.18872c.686898 0 1.254901.240098 1.704026.7203011.449126.4802032.673685 1.1016333.673685 1.8643089v17.9227877c0 .7344283-.224559 1.3487967-.673685 1.8431235-.449125.4943268-1.017128.7414865-1.704026.7414865s-1.248296-.240098-1.684212-.7203012c-.435916-.4802031-.66708-1.0875098-.693499-1.8219382-.660479.8191701-1.552111 1.518279-2.674925 2.0973475s-2.305053.8685985-3.546752.8685985c-1.822921 0-3.474093-.5013811-4.953565-1.5041583-1.479472-1.0027773-2.648501-2.3939332-3.507124-4.1735097-.858622-1.7795765-1.287926-3.7992242-1.287926-6.0590039 0-2.2597796.4227-4.2864891 1.268112-6.0801891.845413-1.7937001 2.001233-3.1919178 3.467495-4.194695 1.466263-1.0027772 3.084411-1.5041583 4.854494-1.5041583 1.268119 0 2.456962.2471597 3.566566.7414865s2.04747 1.1228185 2.813625 1.8854942v-.0423707c0-.7344284.224559-1.3487967.673685-1.8431235.449125-.4943268 1.017128-.7414865 1.704026-.7414865zm-7.805585 18.7328571c1.709467 0 3.10332-.6781595 4.181599-2.0344989 1.07828-1.3563394 1.617411-3.062446 1.617411-5.118371s-.539131-3.7691701-1.617411-5.1397868c-1.078279-1.3706167-2.472132-2.0559147-4.181599-2.0559147-1.683168 0-3.063871.685298-4.14215 2.0559147-1.07828 1.3706167-1.617411 3.0838618-1.617411 5.1397868s.532557 3.7620316 1.597686 5.118371c1.06513 1.3563394 2.452408 2.0344989 4.161875 2.0344989zm26.956415-18.7328571c.77659 0 1.43021.2362152 1.96088.7086527.53067.4724374.796001 1.0282379.796001 1.667418 0 .8615037-.207088 1.5076217-.621269 1.9383736-.414181.4307518-.906014.6461245-1.475514.6461245-.388295 0-.828356-.0972651-1.320196-.2917982-.077659-.0277904-.252389-.0833705-.524196-.1667418-.271806-.0833713-.563023-.1250564-.873659-.1250564-.673045 0-1.320194.2223202-1.941466.6669673-.621272.444647-1.132519 1.1185551-1.533757 2.0217444-.401239.9031893-.601855 1.9800527-.601855 3.2306226v9.8794521c0 .7225515-.22003 1.3269845-.660098 1.8133172s-.996616.7294954-1.66966.7294954c-.673045 0-1.229593-.2431627-1.66966-.7294954-.440068-.4863327-.660099-1.0907657-.660099-1.8133172v-17.2160917c0-.7225515.220031-1.3269845.660099-1.8133172.440067-.4863327.996615-.7294954 1.66966-.7294954.673044 0 1.229592.2431627 1.66966.7294954s.660098 1.0907657.660098 1.8133172v.5419109c.595386-1.1394081 1.449622-2.0078463 2.562735-2.6053408 1.113112-.5974945 2.303866-.8962372 3.572296-.8962372zm21.872611.7971428c.695396 0 1.270426.243569 1.725108.7307143.454681.4871453.682019 1.0925882.682019 1.816347v17.7459183c0 3.6187936-.936096 6.2562979-2.808315 7.9125919-1.87222 1.656294-4.372932 2.4844285-7.502213 2.4844285-.909364 0-1.838773-.0765502-2.788256-.229653s-1.718418-.3549171-2.30683-.605449c-1.310554-.5845744-1.965821-1.3918316-1.965821-2.4217959 0-.1948581.040119-.4175498.120357-.6680817.160475-.6124112.434618-1.0786718.822435-1.3987959.387817-.320124.80906-.4801837 1.263741-.4801837.26746 0 .521543.0417547.762257.1252654.187222.0835106.514856.2226929.982911.417551s.962848.3549177 1.484395.4801836c.521547.125266 1.063145.187898 1.624811.187898 1.898965 0 3.296422-.424506 4.192413-1.2735306.895991-.8490247 1.343979-2.3034795 1.343979-4.3634082v-.417551c-1.390791 1.8093968-3.557184 2.7140816-6.499243 2.7140816-1.390792 0-2.621089-.3409965-3.690929-1.023-1.069839-.6820034-1.898953-1.6284429-2.487364-2.8393469-.588412-1.210904-.882614-2.5957677-.882614-4.1546327v-12.1924897c0-.7237588.227338-1.3292017.68202-1.816347s1.029712-.7307143 1.725108-.7307143c.695395 0 1.270425.243569 1.725107.7307143s.68202 1.0925882.68202 1.816347v10.6893061c0 1.753723.367752 3.0133227 1.103266 3.7788367.735515.765514 1.812025 1.1482653 3.229563 1.1482653 1.390791 0 2.467301-.4245059 3.229562-1.2735306.762261-.8490246 1.143386-2.0668696 1.143386-3.6535714v-10.6893061c0-.7237588.227337-1.3292017.682019-1.816347s1.029712-.7307143 1.725108-.7307143z" fill="#1fdfdd"/><path d="m35.8050152 0c3.5585478 0 6.4435562 3.04764998 6.4435562 6.8081915v31.023617c0 3.759923-2.8850084 6.8081915-6.4435562 6.8081915h-29.36233711c-3.5582551 0-6.44267809-3.0482685-6.44267809-6.8081915v-31.023617c0-3.76054152 2.88442299-6.8081915 6.44267809-6.8081915zm-16.4505739 29.8441525h-12.58599143c-.65643729 0-1.18844987.5458917-1.18844987 1.2194543v.0012246c0 .6735625.53201258 1.2194543 1.18844987 1.2194543h12.58599143c.6558405 0 1.1878531-.5458918 1.1878531-1.2194543v-.0012246c0-.6735626-.5320126-1.2194543-1.1878531-1.2194543zm10.0151443-17.4841519c-1.7380669 0-3.3693136.5189493-4.6257942 1.449384-1.2299248.9295163-2.1390904 2.3519579-2.1390904 3.9933072 0 .8202154.2142372 1.5862397.6152607 2.242657.5878098.9570711 1.4698228 1.640737 2.4864055 2.1333562 1.0156875.4917006 2.1922021.8202154 3.4492795 1.0660657h.0534101c1.5769414.3012661 2.8874289.7666366 3.6626217 1.2855859.4013219.2737113.642115.5474226.8026438.8208278.159932.2737113.239898.5201739.239898.8750189 0 .6842783-.347315 1.3679442-1.1490637 1.969558-.8026437.6019199-2.0051175 1.0118746-3.3421609 1.0118746-1.898894.0272486-3.9305674-1.1217878-5.1070821-2.1058013-.5884065-.4926192-1.4704195-.410567-1.9517074.1913529-.454732.6016138-.3744676 1.5044937.2139389 1.9965005 1.5238297 1.2307824 3.9568249 2.7074152 6.8448506 2.7346638 1.8982973 0 3.6360658-.5743651 4.9462549-1.5586849 1.3367451-.9843197 2.2993208-2.4888134 2.2993208-4.2394636 0-.8477703-.2407931-1.668598-.6415182-2.324403-.6152608-1.0118746-1.5775382-1.7230953-2.6740868-2.270518-1.0696944-.5192554-2.3255783-.8747127-3.6894759-1.1487302h-.0531118c-1.4438636-.273099-2.6475309-.7109146-3.3427577-1.2026152-.347315-.2464627-.5881081-.4926192-.7217826-.7118331-.1333761-.2182955-.187383-.4375095-.187383-.765412 0-.5743651.2945016-1.1765912 1.0162843-1.7234015.722081-.5465041 1.7917754-.9298224 2.9948459-.9298224 1.6303515 0 2.940839.8208277 4.3047367 1.750344.6412198.4381218 1.4975721.2464626 1.8982972-.4099546.4275794-.6291687.2407932-1.5044938-.3744676-1.9420032-1.3638976-.9022676-3.2621949-2.1878535-5.8285663-2.1878535zm-13.3044919 8.7416167h-9.29783736c-.65524376 0-1.18725634.5452794-1.18725634 1.2182296 0 .6732564.53201258 1.2185358 1.18725634 1.2185358h9.29783736c.6558405 0 1.1875547-.5452794 1.1875547-1.2185358 0-.6729502-.5317142-1.2182296-1.1875547-1.2182296zm3.2893476-8.745903h-12.58599143c-.65643729 0-1.18844987.5458918-1.18844987 1.2194543v.0012246c0 .6732564.53201258 1.218842 1.18844987 1.218842h12.58599143c.6558405 0 1.1878531-.5455856 1.1878531-1.218842v-.0012246c0-.6735625-.5320126-1.2194543-1.1878531-1.2194543z" fill="url(#c)"/></g></g></svg>