<?xml version="1.0" encoding="UTF-8"?>
<svg width="75px" height="24px" viewBox="0 0 75 24" version="1.1" xmlns="http://www.w3.org/2000/svg" xmlns:xlink="http://www.w3.org/1999/xlink">
    <title>371EFEEF-C3A7-44CA-8DE5-CE7EB9FD2529@1x</title>
    <g id="Final---Revamp-Bureaus---Mobile-&amp;-Desktop--Copy-3" stroke="none" stroke-width="1" fill="none" fill-rule="evenodd">
        <g id="Desktop----Dashboard" transform="translate(-883.000000, -118.000000)" fill="#B32541">
            <g id="Group-12" transform="translate(442.000000, 104.000000)">
                <g id="logos" transform="translate(0.000000, 14.000000)">
                    <g id="Equifax" transform="translate(441.000000, 0.000000)">
                        <g id="Equifax_Logo" transform="translate(3.000000, 5.250000)">
                            <polygon id="Path" stroke="#B32541" stroke-width="0.6211" points="10.9747964 2.04849922 11.4165918 0 2.24663256 0 1.03122895 5.63429296 0 10.1714648 9.42795292 10.1714648 9.9066579 8.01292222 4.67743979 8.01292222 5.15614477 5.81720782 9.57521808 5.81720782 10.0539231 3.76834056 5.63447693 3.76834056 6.00282624 2.04849922"></polygon>
                            <path d="M18.6713584,5.81720782 L21.8754009,5.81720782 C21.9887391,5.15584362 22.1993842,4.16913388 22.2437502,3.36570704 C22.294827,2.42537008 21.9212581,1.7330907 21.1021656,1.28003599 C19.9285182,0.633761348 18.1993642,0.668356915 16.9038036,0.621616096 C15.1276739,0.557577492 13.0141392,0.785024945 11.8952968,2.34108939 C11.3181665,3.14378016 10.9934375,4.38738039 10.865932,5.35973665 C10.7082278,6.546291 10.1053727,8.5373763 11.1955077,9.51194079 C12.0060253,10.2380797 13.8194373,10.4795126 14.8737813,10.4651591 C15.9475121,10.4500695 16.9899258,10.3805103 18.0453882,10.1710968 L20.8072624,13.5 L25.1159801,13.5 L18.6713584,5.81720782 L18.6713584,5.81720782 Z M18.1926534,5.89044737 C17.8403355,7.46785802 17.360512,8.79500286 15.5042253,8.78064938 C13.6404822,8.76703198 14.2589959,6.78772389 14.4364597,5.634661 C14.6873697,3.99615605 15.3248974,2.27778687 17.2352434,2.41469698 C19.1690773,2.55381533 18.4864381,4.57876012 18.1926534,5.89044737 L18.1926534,5.89044737 Z" id="Shape"></path>
                            <polygon id="Path" points="35.8696923 1.13392492 34.8753728 5.63429296 33.8810534 10.1714648 37.637247 10.1714648 39.6627955 1.13392492"></polygon>
                            <polygon id="Path" points="48.8696642 2.92663777 49.3114597 1.13392492 41.0989104 1.13392492 39.1102715 10.1714648 42.9037475 10.1714648 43.7504289 6.29271285 47.4700859 6.29271285 47.6173511 5.63429296 47.8384353 4.60967531 44.1556878 4.60967531 44.5240371 2.92663777"></polygon>
                            <path d="M23.7902208,1.13392492 L27.6202335,1.13392492 L26.1841185,7.53704915 C26.0085188,8.31986587 26.7482,8.72801996 27.3823723,8.78212153 C28.1981094,8.85241678 28.9299614,8.3463646 29.1301674,7.5006134 L30.6401013,1.13429296 L34.4332045,1.13429296 L32.9232706,7.90324691 C32.2767952,9.66798888 30.7791644,10.3610043 29.1256935,10.5339822 C28.1004297,10.6418173 27.0151414,10.5505439 26.0364805,10.3908154 L22.6486362,6.3659524 L23.7902208,1.13392492 L23.7902208,1.13392492 Z" id="Path"></path>
                            <path d="M57.376371,1.13392492 L62.2007032,1.13392492 L63.6737276,3.47575039 L66.0672525,1.13392492 L69.75,1.13392492 L64.9260407,5.34133475 L68.0931737,10.1714648 L63.3791973,10.1714648 L61.8323538,7.42700581 L59.1812081,10.1714648 L53.5467312,10.1714648 L53.325647,8.19546904 L49.4218154,8.19546904 L48.0595194,10.1714648 L45.4080009,10.1714648 L51.8157131,1.13392492 L56.4189611,1.13392492 L57.3029249,8.45125542 L60.3593294,5.67072872 L57.376371,1.13392492 L57.376371,1.13392492 Z M50.6741285,6.25627709 L52.7362136,3.18279218 L53.1045629,6.25627709 L50.6741285,6.25627709 L50.6741285,6.25627709 Z" id="Shape"></path>
                        </g>
                    </g>
                </g>
            </g>
        </g>
    </g>
</svg>