<?xml version="1.0" encoding="UTF-8"?>
<svg width="75px" height="24px" viewBox="0 0 75 24" version="1.1" xmlns="http://www.w3.org/2000/svg" xmlns:xlink="http://www.w3.org/1999/xlink">
    <title>CE615A21-B84A-46BD-BAD0-A00202ABF451@1x</title>
    <g id="Final---Revamp-Bureaus---Mobile-&amp;-Desktop--Copy-3" stroke="none" stroke-width="1" fill="none" fill-rule="evenodd">
        <g id="Desktop----Dashboard" transform="translate(-605.000000, -118.000000)" fill-rule="nonzero">
            <g id="Group-12" transform="translate(442.000000, 104.000000)">
                <g id="logos" transform="translate(0.000000, 14.000000)">
                    <g id="Experian-" transform="translate(163.000000, 0.000000)">
                        <g id="Experian_logo" transform="translate(2.250000, 0.750000)">
                            <path d="M11.1427892,5.29823574 L8.56409654,5.29823574 C7.78339635,5.29823574 7.16829273,4.69138624 7.16829273,3.92116234 L7.16829273,1.3770734 C7.16829273,0.630182394 7.78339635,0 8.56409654,0 L11.1427892,0 C11.8998391,0 12.538593,0.606840671 12.538593,1.3770734 L12.538593,3.92116234 C12.538593,4.69138624 11.9234894,5.29823574 11.1427892,5.29823574" id="path12" fill="#406EB3"></path>
                            <path d="M4.44765378,11.016596 L1.56140932,11.016596 C0.686081245,11.016596 0,10.3163884 0,9.47613938 L0,6.60528397 C0,5.7650349 0.709731511,5.06482734 1.56140932,5.06482734 L4.47131299,5.06482734 C5.34665001,5.06482734 6.03272231,5.7650349 6.03272231,6.60528397 L6.03272231,9.47613938 C6.03272231,10.3397302 5.3229908,11.016596 4.44765378,11.016596" id="path14" fill="#632678"></path>
                            <path d="M4.18742038,16.9683559 L2.41308714,16.9683559 C1.89262034,16.9683559 1.46678144,16.5482313 1.46678144,16.0347487 L1.46678144,14.2842342 C1.46678144,13.7707428 1.89262034,13.3506183 2.41308714,13.3506183 L4.18742038,13.3506183 C4.70788718,13.3506183 5.13372608,13.7707428 5.13372608,14.2842342 L5.13372608,16.0347487 C5.13372608,16.5482313 4.70788718,16.9683559 4.18742038,16.9683559" id="path16" fill="#982881"></path>
                            <path d="M8.94261703,22.5 L6.83708171,22.5 C6.22198703,22.5 5.70151129,22.0098503 5.70151129,21.3796679 L5.70151129,19.3023869 C5.70151129,18.6955375 6.19832782,18.1820548 6.83708171,18.1820548 L8.94261703,18.1820548 C9.55772066,18.1820548 10.0781875,18.6721957 10.0781875,19.3023869 L10.0781875,21.3796679 C10.0781875,22.0098503 9.58137986,22.5 8.94261703,22.5" id="path18" fill="#BA2F7D"></path>
                            <path d="M16.6313766,6.34854267 L15.1882543,6.34854267 C14.7624154,6.34854267 14.4075541,5.9984433 14.4075541,5.57831876 L14.4075541,4.15456192 C14.4075541,3.73443738 14.7624154,3.38432919 15.1882543,3.38432919 L16.6313766,3.38432919 C17.0572155,3.38432919 17.4120857,3.73443738 17.4120857,4.15456192 L17.4120857,5.57831876 C17.4357807,5.9984433 17.0808747,6.34854267 16.6313766,6.34854267" id="path20" fill="#BA2F7D"></path>
                            <path d="M48.4746658,7.30549153 C48.9478204,7.30549153 49.3026861,6.93205044 49.3026861,6.48858418 C49.3026861,6.02178502 48.924163,5.67167683 48.4746658,5.67167683 C48.001512,5.67167683 47.6229879,6.04511792 47.6229879,6.48858418 C47.6229879,6.93205044 48.001512,7.30549153 48.4746658,7.30549153 Z" id="path22" fill="#26478D"></path>
                            <path d="M17.8852341,16.1281068 C17.766947,16.3148317 17.554032,16.4081898 17.3174489,16.4081898 C17.1991618,16.4081898 17.0335563,16.3848128 16.9389284,16.3148317 C16.7496637,16.198132 16.6313766,15.9647324 16.6313766,15.731324 C16.6313766,15.6146242 16.6550715,15.4979244 16.7260134,15.4045663 L18.6659432,12.3936694 L16.7260134,9.38278131 C16.6550179,9.28941442 16.6313766,9.14937291 16.6313766,9.05601484 C16.6313766,8.82261526 16.7496637,8.58920686 16.9625876,8.47250707 C17.0808747,8.40246426 17.1991618,8.379149 17.3174489,8.379149 C17.554032,8.379149 17.766947,8.47250707 17.9088933,8.65923203 L19.4939618,11.1332958 L21.1026878,8.65923203 C21.2209766,8.47250707 21.4575535,8.379149 21.6941304,8.379149 C21.8124193,8.379149 21.9307081,8.40252601 22.0489961,8.47250707 C22.2619156,8.58920686 22.3802045,8.82261526 22.3802045,9.05601484 C22.3802045,9.17271463 22.3565453,9.28941442 22.2855739,9.38278131 L20.3456396,12.3936694 L22.2855739,15.4045663 C22.3565426,15.4979244 22.3802045,15.6146242 22.3802045,15.731324 C22.3802045,15.9647324 22.2619156,16.2214737 22.0726545,16.3148317 C21.9543656,16.3848746 21.8124193,16.4081898 21.6941304,16.4081898 C21.4575535,16.4081898 21.2682915,16.3148317 21.1263452,16.1281068 L19.517621,13.6773847 L17.8852341,16.1281068 Z" id="path24" fill="#26478D"></path>
                            <path d="M24.816949,9.28941442 C25.5503389,8.6358903 26.543963,8.23910749 27.6085593,8.23910749 C29.9506733,8.23910749 31.7959753,10.0829889 31.7959753,12.3703277 C31.7959753,14.6343336 29.9270159,16.478215 27.6085593,16.478215 C26.543963,16.478215 25.5503389,16.0814322 24.816949,15.4278992 L24.816949,18.9522788 C24.816949,19.3023869 24.4857416,19.6058117 24.1308758,19.6058117 C23.7996675,19.6058117 23.4448017,19.3023869 23.4448017,18.9522788 L23.4448017,8.96265677 C23.4448017,8.61254858 23.7760101,8.30912384 24.1308758,8.30912384 C24.509399,8.30912384 24.816949,8.61254858 24.816949,8.96265677 L24.816949,9.28941442 Z M27.5849019,9.61618089 C26.0234926,9.61618089 24.7932916,10.8298711 24.7932916,12.3703277 C24.7932916,13.9107843 26.0234926,15.1244833 27.5849019,15.1244833 C29.1463112,15.1244833 30.3765122,13.9107843 30.3765122,12.3703277 C30.4001714,10.8298711 29.1699687,9.61618089 27.5849019,9.61618089 L27.5849019,9.61618089 Z" id="path26" fill="#26478D"></path>
                            <path d="M43.6484915,11.6234455 L43.6484915,15.7546657 C43.6484915,16.1047739 43.317284,16.4081898 42.9624183,16.4081898 C42.5838942,16.4081898 42.2763442,16.1047739 42.2763442,15.7546657 L42.2763442,8.96265677 C42.2763442,8.61254858 42.6075525,8.30912384 42.9624183,8.30912384 C43.2936257,8.30912384 43.6248341,8.58920686 43.6484915,8.93931505 C44.2162767,8.51919051 44.9496665,8.26244921 45.7303712,8.26244921 C46.1562101,8.26244921 46.4874175,8.58920686 46.4874175,8.93931505 C46.4874175,9.31275614 46.1562101,9.63952261 45.7303712,9.63952261 C44.6657739,9.66289962 43.6484915,10.0363054 43.6484915,11.6234455 L43.6484915,11.6234455 Z" id="path28" fill="#26478D"></path>
                            <path d="M48.4746658,8.30912384 C48.0961426,8.30912384 47.7885926,8.61254858 47.7885926,8.96265677 L47.7885926,15.7780074 C47.7885926,16.1281068 48.1198,16.4315315 48.4746658,16.4315315 C48.8058741,16.4315315 49.1607398,16.1281068 49.1607398,15.7780074 L49.1607398,8.96265677 C49.1607398,8.61254858 48.8295315,8.30912384 48.4746658,8.30912384 Z" id="path30" fill="#26478D"></path>
                            <path d="M57.2753365,8.96265677 C57.2753365,8.61254858 57.6065448,8.30912384 57.9614106,8.30912384 C58.292618,8.30912384 58.6474838,8.61254858 58.6474838,8.96265677 L58.6474838,15.7780074 C58.6474838,16.1281068 58.3162763,16.4315315 57.9614106,16.4315315 C57.5828865,16.4315315 57.2753365,16.1281068 57.2753365,15.7780074 L57.2753365,15.451241 C56.5182892,16.1047739 55.5483234,16.5015567 54.4837262,16.5015567 C52.1416122,16.5015567 50.2963103,14.6576753 50.2963103,12.3703277 C50.2963103,10.1063218 52.1652696,8.26244921 54.4837262,8.26244921 C55.5483234,8.26244921 56.5182892,8.65923203 57.2753365,9.31275614 L57.2753365,8.96265677 Z M54.4837262,15.1244833 C56.0451355,15.1244833 57.2753365,13.9107843 57.2753365,12.3703277 C57.2753365,10.8298711 56.0451355,9.61618089 54.4837262,9.61618089 C52.9223168,9.61618089 51.692115,10.8298711 51.692115,12.3703277 C51.692115,13.9107843 52.9223168,15.1244833 54.4837262,15.1244833 L54.4837262,15.1244833 Z" id="path32" fill="#26478D"></path>
                            <path d="M65.6738257,11.7168036 C65.6738257,10.5731298 64.6802016,9.59283917 63.5209738,9.59283917 C62.4090608,9.59283917 61.3681218,10.0363054 61.3681218,11.6467784 L61.3681218,15.7780074 C61.3681218,16.1281068 61.0369135,16.4315315 60.6820477,16.4315315 C60.3035246,16.4315315 59.9959736,16.1281068 59.9959736,15.7780074 L59.9959736,8.96265677 C59.9959736,8.61254858 60.327182,8.30912384 60.6820477,8.30912384 C61.0132561,8.30912384 61.3444635,8.58920686 61.3681218,8.93931505 C61.9595645,8.49584879 62.6929534,8.26244921 63.4973164,8.26244921 C65.3662757,8.26244921 67.0459739,9.70953896 67.0459739,11.5300786 L67.0459739,15.7780074 C67.0459739,16.1281068 66.7147656,16.4315315 66.3598998,16.4315315 C65.9813766,16.4315315 65.6738257,16.1281068 65.6738257,15.7780074 L65.6738257,11.7168036 Z" id="path34" fill="#26478D"></path>
                            <path d="M16.2292416,12.1369281 C16.2055019,10.0363054 14.3129262,8.26244921 12.0654357,8.26244921 C9.72332617,8.26244921 7.87802424,10.1063218 7.87802424,12.3703277 C7.87802424,14.681017 9.74698537,16.5015567 12.0654357,16.5015567 C13.1773558,16.5015567 14.2182894,16.0814322 14.9753393,15.3345412 C15.1172856,15.2178414 15.2119135,15.0077747 15.2119135,14.8210586 C15.2119135,14.4476086 14.8807115,14.1441927 14.5258412,14.1441927 C14.3129262,14.1441927 14.1236615,14.2608925 13.9817152,14.4242757 C13.5085579,14.9144166 12.8224856,15.1478162 12.0890949,15.1478162 C10.6932911,15.1478162 9.55772066,14.2142091 9.32114647,12.907152 L15.5667838,12.907152 C15.5667838,12.907152 15.5667838,12.907152 15.5904787,12.907152 L15.6140843,12.907152 C15.6140843,12.907152 15.6377793,12.907152 15.6377793,12.907152 C15.6614742,12.907152 15.6850798,12.907152 15.7087748,12.883775 C15.9926674,12.7670664 16.2292416,12.4869834 16.2292416,12.136884 L16.2292416,12.1369281 Z M12.0654357,9.61618089 C13.3193021,9.61618089 14.3602357,10.4097465 14.7151059,11.5300786 L9.39211515,11.5300786 C9.74698537,10.4097465 10.787919,9.61618089 12.0654357,9.61618089 Z" id="path36" fill="#26478D"></path>
                            <path d="M41.1171235,12.1369281 C41.0934571,10.0363054 39.177183,8.26244921 36.9533579,8.26244921 C34.6112439,8.26244921 32.7659419,10.1063218 32.7659419,12.3703277 C32.7659419,14.681017 34.6349013,16.5015567 36.9533579,16.5015567 C38.0652709,16.5015567 39.1062098,16.0814322 39.8632571,15.3345412 C40.0052034,15.2178414 40.0998339,15.0077747 40.0998339,14.8210586 C40.0998339,14.4476086 39.7686265,14.1441927 39.4137607,14.1441927 C39.2008413,14.1441927 39.0115792,14.2608925 38.8696329,14.4242757 C38.3964783,14.9144166 37.7104051,15.1478162 36.9770153,15.1478162 C35.5812106,15.1478162 34.4456402,14.2142091 34.2090624,12.907152 L40.4546997,12.907152 C40.4546997,12.907152 40.4546997,12.907152 40.4783589,12.907152 L40.5020181,12.907152 C40.5256773,12.907152 40.5493365,12.907152 40.5493365,12.907152 C40.5493365,12.907152 40.5729957,12.907152 40.5729957,12.907152 C40.8568883,12.7904522 41.1171235,12.4870275 41.1171235,12.1369281 L41.1171235,12.1369281 Z M36.9533579,9.61618089 C38.2072172,9.61618089 39.2481561,10.4097465 39.6030219,11.5300786 L34.2800355,11.5300786 C34.6349013,10.4097465 35.6758411,9.61618089 36.9533579,9.61618089 Z" id="path38" fill="#26478D"></path>
                            <path d="M68.5127518,16.4315315 C68.4417831,16.4315315 68.3944638,16.3848657 68.3944638,16.3148317 L68.3944638,15.1711579 L68.1342286,15.1711579 C68.0632599,15.1711579 68.0159397,15.1244921 68.0159397,15.0544581 C68.0159397,14.9844153 68.0632581,14.9377583 68.1342286,14.9377583 L68.8912758,14.9377583 C68.9622445,14.9377583 69.0095638,14.9844241 69.0095638,15.0544581 C69.0095638,15.1245009 68.9622454,15.1711579 68.8912758,15.1711579 L68.6310407,15.1711579 L68.6310407,16.3148317 C68.6310407,16.3848746 68.5837222,16.4315315 68.5127518,16.4315315 Z" id="path40" fill="#26478D"></path>
                            <path d="M69.8612416,16.4315315 C69.790273,16.4315315 69.7666111,16.3848657 69.7429537,16.3381735 L69.4117453,15.4045663 L69.4117453,16.3148317 C69.4117453,16.3848746 69.3644269,16.4315315 69.2934564,16.4315315 C69.2224788,16.4315315 69.1751684,16.3848657 69.1751684,16.3148317 L69.1751684,15.1011416 C69.1751684,15.0077747 69.2461371,14.9377583 69.3407722,14.9377583 C69.4117408,14.9377583 69.4827185,14.9844241 69.5063759,15.0544581 L69.8375842,16.011407 L70.1687926,15.0544581 C70.1924518,14.9844153 70.2634231,14.9377583 70.3343963,14.9377583 C70.4290268,14.9377583 70.5,15.0078012 70.5,15.1011416 L70.5,16.3148317 C70.5,16.3848746 70.4526816,16.4315315 70.381712,16.4315315 C70.3107344,16.4315315 70.2634231,16.3848657 70.2634231,16.3148317 L70.2634231,15.4045663 C70.2161047,15.5446078 70.1451342,15.7780074 70.0741611,15.9647324 C69.9558731,16.3381735 69.9322148,16.3381735 69.9322148,16.3381735 C69.955874,16.4082163 69.9085556,16.4315315 69.8612461,16.4315315 L69.8612416,16.4315315 Z" id="path42" fill="#26478D"></path>
                        </g>
                    </g>
                </g>
            </g>
        </g>
    </g>
</svg>